<svg xmlns="http://www.w3.org/2000/svg" viewBox="0 0 64 64" fill="none">
  <polygon points="10,58 10,28 14,28 14,42 18,42 18,58" fill="#FFD700"/>
  <polygon points="14,28 12,22 16,28" fill="#FFD700"/>
  <polygon points="20,58 20,24 24,24 24,38 28,38 28,58" fill="#FFC107"/>
  <polygon points="24,24 22,18 26,24" fill="#FFC107"/>
  <polygon points="30,58 30,20 34,20 34,34 38,34 38,58" fill="#FFD700"/>
  <polygon points="34,20 32,14 36,20" fill="#FFD700"/>
  <polygon points="8,52 8,34 12,28 16,34 16,52" fill="#FFD700" opacity="0.3"/>
  <polygon points="40,58 40,22 44,22 44,36 48,36 48,58" fill="#FFC107"/>
  <polygon points="44,22 42,16 46,22" fill="#FFC107"/>
  <polygon points="48,58 48,26 52,26 52,40 56,40 56,58" fill="#FFD700"/>
  <polygon points="52,26 50,20 54,26" fill="#FFD700"/>
  <text x="32" y="10" text-anchor="middle" font-family="Arial,sans-serif" font-size="9" font-weight="bold" fill="#FF8F00">x6</text>
</svg>