<svg xmlns="http://www.w3.org/2000/svg" viewBox="0 0 64 64" fill="none">
  <polygon points="32,2 34,10 42,6 38,14 46,14 40,18 46,24 38,22 38,30 32,24 26,30 26,22 18,24 24,18 18,14 26,14 22,6 30,10" fill="#FFD700"/>
  <polygon points="14,26 16,32 22,30 20,36 14,40 20,40 18,46 24,42" fill="#FFD700" opacity="0.8"/>
  <polygon points="50,26 48,32 42,30 44,36 50,40 44,40 46,46 40,42" fill="#FFD700" opacity="0.8"/>
  <polygon points="20,44 22,50 28,48 26,54 20,56 26,58 24,62 30,58" fill="#FFD700" opacity="0.6"/>
  <polygon points="44,44 42,50 36,48 38,54 44,56 38,58 40,62 34,58" fill="#FFD700" opacity="0.6"/>
  <circle cx="32" cy="16" r="4" fill="#FFF9C4"/>
</svg>