<svg xmlns="http://www.w3.org/2000/svg" viewBox="0 0 64 64" fill="none">
  <polygon points="32,2 38,18 56,18 42,28 46,46 32,36 18,46 22,28 8,18 26,18" fill="#FFD600" opacity="0.4"/>
  <circle cx="32" cy="32" r="16" fill="#FF6F00"/>
  <rect x="26" y="22" width="12" height="16" rx="3" fill="#FFCC80"/>
  <rect x="26" y="22" width="3" height="12" rx="1.5" fill="#FFB74D"/>
  <rect x="30" y="22" width="3" height="12" rx="1.5" fill="#FFB74D"/>
  <rect x="34" y="22" width="3" height="12" rx="1.5" fill="#FFB74D"/>
  <rect x="24" y="28" width="4" height="10" rx="2" fill="#FFB74D"/>
  <polygon points="16,8 20,14 12,14" fill="#FFD600"/>
  <polygon points="48,8 52,14 44,14" fill="#FFD600"/>
  <polygon points="8,28 14,24 14,32" fill="#FFD600"/>
  <polygon points="56,28 50,24 50,32" fill="#FFD600"/>
</svg>