<svg xmlns="http://www.w3.org/2000/svg" viewBox="0 0 64 64" fill="none">
  <rect x="0" y="0" width="64" height="64" fill="#4FC3F7" rx="4" opacity="0.3"/>
  <ellipse cx="32" cy="30" rx="12" ry="10" fill="#FFFFFF"/>
  <circle cx="32" cy="24" r="6" fill="#FFFFFF"/>
  <polygon points="20,32 14,42 26,38" fill="#FFFFFF"/>
  <polygon points="44,32 50,42 38,38" fill="#FFFFFF"/>
  <polygon points="28,38 24,54 32,48 40,54 36,38" fill="#FFFFFF"/>
  <circle cx="30" cy="24" r="1" fill="#455A64"/>
  <polygon points="32,26 31,28 33,28" fill="#FFB300"/>
  <path d="M14,44L20,38" stroke="#E0E0E0" stroke-width="1" opacity="0.5"/>
  <path d="M50,44L44,38" stroke="#E0E0E0" stroke-width="1" opacity="0.5"/>
  <path d="M6 18L10 14L14 18" stroke="#4FC3F7" stroke-width="1.5" fill="none" opacity="0.5"/>
  <path d="M50 10L54 6L58 10" stroke="#4FC3F7" stroke-width="1.5" fill="none" opacity="0.5"/>
</svg>