<svg xmlns="http://www.w3.org/2000/svg" viewBox="0 0 64 64" fill="none">
  <defs>
    <filter id="ra" x="-50%" y="-50%" width="200%" height="200%">
      <feGaussianBlur in="SourceGraphic" stdDeviation="3" result="blur"/>
      <feMerge><feMergeNode in="blur"/><feMergeNode in="SourceGraphic"/></feMerge>
    </filter>
  </defs>
  <!-- Fire glow -->
  <path d="M8 6 Q4 16 8 26 Q14 32 22 28 Q18 18 14 10 Z" fill="#FF3D00" opacity="0.2" filter="url(#ra)"/>
  <!-- Handle -->
  <line x1="28" y1="24" x2="48" y2="58" stroke="#5D4037" stroke-width="5" stroke-linecap="round"/>
  <line x1="28" y1="24" x2="48" y2="58" stroke="#795548" stroke-width="2" stroke-linecap="round"/>
  <!-- Axe head left blade -->
  <path d="M28 24 Q14 10 8 8 Q4 14 6 22 Q8 30 26 28 Z" fill="#FFD600"/>
  <path d="M28 24 Q16 12 10 10 Q8 16 9 22 Q10 28 26 27 Z" fill="#FFC107" opacity="0.6"/>
  <!-- Axe head right blade -->
  <path d="M28 24 Q34 10 38 8 Q42 12 40 20 Q38 28 30 28 Z" fill="#FFD600"/>
  <path d="M28 24 Q33 12 36 10 Q38 14 37 20 Q36 26 30 27 Z" fill="#FFC107" opacity="0.6"/>
  <!-- Blade edges -->
  <path d="M8 8 Q4 14 6 22 Q8 30 26 28" stroke="#FF3D00" stroke-width="1.5" fill="none"/>
  <path d="M38 8 Q42 12 40 20 Q38 28 30 28" stroke="#FF3D00" stroke-width="1.5" fill="none"/>
  <!-- Flames on blades -->
  <path d="M10 12 Q6 6 10 4 Q8 10 12 8" fill="#FF3D00" opacity="0.8"/>
  <path d="M6 20 Q2 16 6 14 Q4 20 8 18" fill="#FF3D00" opacity="0.7"/>
  <path d="M36 12 Q40 6 36 4 Q38 10 34 8" fill="#FF3D00" opacity="0.8"/>
  <!-- Ember particles -->
  <circle cx="6" cy="6" r="1" fill="#FFEB3B" opacity="0.7"/>
  <circle cx="40" cy="6" r="1" fill="#FFEB3B" opacity="0.6"/>
  <circle cx="4" cy="16" r="0.8" fill="#FF3D00" opacity="0.5"/>
</svg>