<svg xmlns="http://www.w3.org/2000/svg" viewBox="0 0 64 64" fill="none">
  <!-- Boot shape -->
  <path d="M18 18 L22 16 L26 18 L26 38 L18 40 L14 44 L10 48 L10 52 L38 52 L38 46 L30 44 L30 38 L30 18 L34 16 L38 18 L38 38 L42 40 L46 44 L50 48 L50 52 L54 52 L54 46 L46 38 L42 34 L42 18 L38 14 L34 12 L26 12 L22 14 L18 18Z" fill="#FFD700"/>
  <!-- Left boot -->
  <path d="M16 24 L16 42 L12 46 L8 50 L8 54 L32 54 L32 42 L24 42 L24 24Z" fill="#FFD700" stroke="#E6AC00" stroke-width="1.5"/>
  <!-- Right boot (behind) -->
  <path d="M28 20 L28 38 L34 38 L40 42 L44 46 L44 50 L56 50 L56 46 L48 38 L40 34 L36 34 L36 20Z" fill="#DAA520" stroke="#B8860B" stroke-width="1.5"/>
  <!-- Wing left -->
  <path d="M14 22 C6 14 4 10 8 8 C12 6 14 10 16 16" fill="#FFE57F" stroke="#FFD700" stroke-width="1"/>
  <path d="M12 26 C4 20 2 16 6 13 C10 10 12 14 14 20" fill="#FFE57F" stroke="#FFD700" stroke-width="1"/>
  <path d="M11 30 C3 26 1 22 5 19 C9 16 11 20 13 26" fill="#FFE57F" stroke="#FFD700" stroke-width="1"/>
  <!-- Wing right -->
  <path d="M38 18 C46 10 48 6 44 4 C40 2 38 6 36 12" fill="#FFE57F" stroke="#FFD700" stroke-width="1"/>
  <path d="M40 22 C48 16 50 12 46 9 C42 6 40 10 38 16" fill="#FFE57F" stroke="#FFD700" stroke-width="1"/>
  <path d="M41 26 C49 22 51 18 47 15 C43 12 41 16 39 22" fill="#FFE57F" stroke="#FFD700" stroke-width="1"/>
  <!-- Sole highlight -->
  <rect x="8" y="52" width="24" height="3" rx="1" fill="#E6AC00"/>
  <rect x="44" y="48" width="12" height="3" rx="1" fill="#B8860B"/>
</svg>