<svg xmlns="http://www.w3.org/2000/svg" viewBox="0 0 64 64" fill="none">
  <!-- Cape shadow -->
  <path d="M20 8 C16 8 10 12 8 20 L6 40 L10 56 L18 60 L26 56 L32 58 L38 56 L46 60 L54 56 L58 40 L56 20 C54 12 48 8 44 8" fill="#263238" stroke="#37474F" stroke-width="1.5"/>
  <!-- Cape main body -->
  <path d="M22 8 C18 8 12 12 10 20 L8 40 L12 54 L20 58 L28 54 L32 56 L36 54 L44 58 L52 54 L56 40 L54 20 C52 12 46 8 42 8" fill="#37474F" stroke="#455A64" stroke-width="1"/>
  <!-- Collar -->
  <path d="M22 8 L28 12 L32 10 L36 12 L42 8 L38 14 L32 12 L26 14Z" fill="#546E7A" stroke="#455A64" stroke-width="1"/>
  <!-- Clasp -->
  <circle cx="32" cy="12" r="3" fill="#78909C" stroke="#546E7A" stroke-width="1"/>
  <circle cx="32" cy="12" r="1.5" fill="#B0BEC5"/>
  <!-- Fold lines -->
  <path d="M20 20 Q24 36 18 54" stroke="#455A64" stroke-width="1.5" fill="none" opacity="0.6"/>
  <path d="M32 16 Q34 36 32 56" stroke="#455A64" stroke-width="1" fill="none" opacity="0.5"/>
  <path d="M44 20 Q40 36 46 54" stroke="#455A64" stroke-width="1.5" fill="none" opacity="0.6"/>
  <!-- Shadow wisps -->
  <path d="M10 50 Q6 52 4 56" stroke="#263238" stroke-width="1.5" fill="none" opacity="0.5" stroke-linecap="round"/>
  <path d="M54 50 Q58 52 60 56" stroke="#263238" stroke-width="1.5" fill="none" opacity="0.5" stroke-linecap="round"/>
  <path d="M26 56 Q24 60 22 62" stroke="#263238" stroke-width="1" fill="none" opacity="0.4" stroke-linecap="round"/>
  <path d="M38 56 Q40 60 42 62" stroke="#263238" stroke-width="1" fill="none" opacity="0.4" stroke-linecap="round"/>
</svg>