<svg xmlns="http://www.w3.org/2000/svg" viewBox="0 0 64 64" fill="none">
  <!-- Can body -->
  <rect x="12" y="16" width="32" height="40" rx="3" fill="#E53935" stroke="#C62828" stroke-width="1.5"/>
  <!-- Can top -->
  <rect x="12" y="14" width="32" height="6" rx="2" fill="#EF5350" stroke="#C62828" stroke-width="1"/>
  <!-- Handle -->
  <path d="M18 14 L18 8 L36 8 L36 14" stroke="#C62828" stroke-width="3" fill="none" stroke-linecap="round" stroke-linejoin="round"/>
  <path d="M18 14 L18 8 L36 8 L36 14" stroke="#E53935" stroke-width="1.5" fill="none" stroke-linecap="round" stroke-linejoin="round"/>
  <!-- Spout -->
  <path d="M40 18 L48 12 L50 14 L50 20 L44 22 L44 18Z" fill="#C62828" stroke="#B71C1C" stroke-width="1"/>
  <ellipse cx="50" cy="17" rx="2" ry="3" fill="#B71C1C"/>
  <!-- Label area -->
  <rect x="16" y="28" width="24" height="18" rx="1" fill="#FFCDD2"/>
  <!-- Flame symbol -->
  <path d="M28 42 Q24 36 28 32 Q26 38 30 36 Q28 42 32 38 Q36 32 34 28 Q40 34 36 42 Q34 46 28 42Z" fill="#E53935"/>
  <path d="M30 42 Q28 38 32 36 Q34 34 34 30 Q38 36 34 42 Q32 44 30 42Z" fill="#FF9800"/>
  <!-- Metal ridges -->
  <line x1="12" y1="50" x2="44" y2="50" stroke="#C62828" stroke-width="1"/>
  <line x1="12" y1="24" x2="44" y2="24" stroke="#C62828" stroke-width="1"/>
  <!-- Highlight -->
  <line x1="14" y1="20" x2="14" y2="52" stroke="#EF9A9A" stroke-width="1.5" opacity="0.4" stroke-linecap="round"/>
  <!-- Drip -->
  <path d="M50 20 Q52 24 50 26 Q48 24 50 20Z" fill="#FF9800" opacity="0.6"/>
</svg>