<svg xmlns="http://www.w3.org/2000/svg" viewBox="0 0 64 64" fill="none">
  <!-- Glove body -->
  <path d="M20 54 L20 30 L16 28 L16 18 L20 16 L24 18 L24 24 L28 14 L32 12 L36 14 L34 24 L38 16 L42 14 L46 16 L44 28 L46 22 L50 20 L54 22 L52 34 L48 44 L44 50 L38 54Z" fill="#42A5F5" stroke="#1E88E5" stroke-width="1.5" stroke-linejoin="round"/>
  <!-- Knuckle line -->
  <path d="M20 32 Q32 28 48 34" stroke="#1E88E5" stroke-width="1.5" fill="none"/>
  <!-- Wrist band -->
  <rect x="18" y="50" width="22" height="6" rx="2" fill="#1565C0"/>
  <!-- Motion lines -->
  <line x1="6" y1="20" x2="12" y2="22" stroke="#90CAF9" stroke-width="2" stroke-linecap="round"/>
  <line x1="4" y1="28" x2="10" y2="28" stroke="#90CAF9" stroke-width="2" stroke-linecap="round"/>
  <line x1="6" y1="36" x2="12" y2="34" stroke="#90CAF9" stroke-width="2" stroke-linecap="round"/>
  <line x1="56" y1="14" x2="60" y2="12" stroke="#90CAF9" stroke-width="1.5" stroke-linecap="round"/>
  <line x1="56" y1="20" x2="62" y2="20" stroke="#90CAF9" stroke-width="1.5" stroke-linecap="round"/>
  <!-- Finger highlights -->
  <path d="M22 18 L22 24" stroke="#64B5F6" stroke-width="1" stroke-linecap="round"/>
  <path d="M34 14 L33 24" stroke="#64B5F6" stroke-width="1" stroke-linecap="round"/>
  <path d="M44 16 L43 28" stroke="#64B5F6" stroke-width="1" stroke-linecap="round"/>
  <path d="M52 22 L51 34" stroke="#64B5F6" stroke-width="1" stroke-linecap="round"/>
</svg>