<svg xmlns="http://www.w3.org/2000/svg" viewBox="0 0 64 64" fill="none">
  <!-- Glow effect -->
  <ellipse cx="32" cy="34" rx="24" ry="22" fill="#F4433620"/>
  <ellipse cx="32" cy="34" rx="18" ry="16" fill="#F4433640"/>
  <!-- Dragon heart shape -->
  <path d="M32 56 C32 56 6 40 6 24 C6 16 12 10 20 10 C26 10 30 14 32 18 C34 14 38 10 44 10 C52 10 58 16 58 24 C58 40 32 56 32 56Z" fill="#F44336" stroke="#D32F2F" stroke-width="1.5"/>
  <!-- Dragon scale texture -->
  <path d="M22 20 Q26 24 22 28" stroke="#E53935" stroke-width="1" fill="none"/>
  <path d="M28 18 Q32 22 28 26" stroke="#E53935" stroke-width="1" fill="none"/>
  <path d="M36 18 Q40 22 36 26" stroke="#E53935" stroke-width="1" fill="none"/>
  <path d="M42 20 Q46 24 42 28" stroke="#E53935" stroke-width="1" fill="none"/>
  <path d="M18 28 Q22 32 18 36" stroke="#E53935" stroke-width="1" fill="none"/>
  <path d="M26 26 Q30 30 26 34" stroke="#E53935" stroke-width="1" fill="none"/>
  <path d="M34 26 Q38 30 34 34" stroke="#E53935" stroke-width="1" fill="none"/>
  <path d="M44 28 Q48 32 44 36" stroke="#E53935" stroke-width="1" fill="none"/>
  <path d="M24 34 Q28 38 24 42" stroke="#E53935" stroke-width="1" fill="none"/>
  <path d="M32 34 Q36 38 32 42" stroke="#E53935" stroke-width="1" fill="none"/>
  <path d="M40 34 Q44 38 40 42" stroke="#E53935" stroke-width="1" fill="none"/>
  <!-- Highlight -->
  <path d="M18 18 Q20 14 26 14 Q28 14 28 18" fill="#FF8A80" opacity="0.6"/>
  <!-- Glow rays -->
  <line x1="32" y1="4" x2="32" y2="8" stroke="#FF8A80" stroke-width="1.5" stroke-linecap="round" opacity="0.6"/>
  <line x1="12" y1="12" x2="14" y2="15" stroke="#FF8A80" stroke-width="1.5" stroke-linecap="round" opacity="0.6"/>
  <line x1="52" y1="12" x2="50" y2="15" stroke="#FF8A80" stroke-width="1.5" stroke-linecap="round" opacity="0.6"/>
</svg>