<svg xmlns="http://www.w3.org/2000/svg" viewBox="0 0 64 64" fill="none">
  <!-- Vial body -->
  <path d="M24 20 L24 48 Q24 56 32 56 Q40 56 40 48 L40 20Z" fill="#B71C1C" stroke="#880E0F" stroke-width="1.5"/>
  <!-- Liquid level gradient look -->
  <path d="M24 28 L40 28 L40 48 Q40 56 32 56 Q24 56 24 48Z" fill="#D32F2F"/>
  <path d="M24 36 L40 36 L40 48 Q40 56 32 56 Q24 56 24 48Z" fill="#B71C1C"/>
  <!-- Vial neck -->
  <rect x="28" y="10" width="8" height="12" rx="1" fill="#C62828" stroke="#880E0F" stroke-width="1"/>
  <!-- Cork -->
  <rect x="27" y="6" width="10" height="6" rx="2" fill="#8D6E63" stroke="#5D4037" stroke-width="1"/>
  <!-- Glass highlight -->
  <path d="M27 22 L27 46 Q27 52 30 52" stroke="#EF9A9A" stroke-width="1.5" fill="none" opacity="0.4" stroke-linecap="round"/>
  <!-- Bubbles -->
  <circle cx="30" cy="42" r="1.5" fill="#EF5350" opacity="0.6"/>
  <circle cx="34" cy="46" r="1" fill="#EF5350" opacity="0.5"/>
  <circle cx="32" cy="38" r="1" fill="#EF5350" opacity="0.4"/>
  <!-- Blood drip -->
  <path d="M36 56 Q36 60 34 62 Q32 64 30 62 Q28 60 30 58" fill="#B71C1C" opacity="0.7"/>
  <!-- Bat silhouette label -->
  <path d="M28 30 Q30 28 32 30 Q34 28 36 30 L34 32 L36 34 Q34 33 32 34 Q30 33 28 34 L30 32Z" fill="#880E0F" opacity="0.6"/>
</svg>