<svg xmlns="http://www.w3.org/2000/svg" viewBox="0 0 64 64" fill="none">
  <!-- Chain -->
  <path d="M20 4 Q16 8 18 14 Q20 20 24 24" stroke="#DAA520" stroke-width="2" fill="none" stroke-linecap="round"/>
  <path d="M44 4 Q48 8 46 14 Q44 20 40 24" stroke="#DAA520" stroke-width="2" fill="none" stroke-linecap="round"/>
  <!-- Chain links -->
  <ellipse cx="18" cy="8" rx="2" ry="3" fill="none" stroke="#FFD700" stroke-width="1.5"/>
  <ellipse cx="18" cy="14" rx="2" ry="3" fill="none" stroke="#DAA520" stroke-width="1.5"/>
  <ellipse cx="46" cy="8" rx="2" ry="3" fill="none" stroke="#FFD700" stroke-width="1.5"/>
  <ellipse cx="46" cy="14" rx="2" ry="3" fill="none" stroke="#DAA520" stroke-width="1.5"/>
  <!-- Amulet outer ring -->
  <circle cx="32" cy="38" r="18" fill="#FFD700" stroke="#DAA520" stroke-width="2"/>
  <!-- Inner ring -->
  <circle cx="32" cy="38" r="14" fill="#FFC107" stroke="#FFB300" stroke-width="1"/>
  <!-- Inner circle -->
  <circle cx="32" cy="38" r="10" fill="#FFD700" stroke="#FFA000" stroke-width="1"/>
  <!-- Star -->
  <polygon points="32,26 34.5,33 42,33 36,37.5 38.5,45 32,41 25.5,45 28,37.5 22,33 29.5,33" fill="#FFF8E1" stroke="#FFB300" stroke-width="0.5"/>
  <!-- Glow highlights -->
  <circle cx="26" cy="32" r="2" fill="#FFECB3" opacity="0.6"/>
  <!-- Sparkles -->
  <circle cx="14" cy="28" r="1.5" fill="#FFE082" opacity="0.5"/>
  <circle cx="50" cy="30" r="1" fill="#FFE082" opacity="0.5"/>
  <circle cx="32" cy="18" r="1" fill="#FFE082" opacity="0.6"/>
</svg>