<svg xmlns="http://www.w3.org/2000/svg" viewBox="0 0 64 64" fill="none">
  <!-- Hard hat -->
  <path d="M14 24C14 14 22 8 32 8C42 8 50 14 50 24H14Z" fill="#FF9800"/>
  <rect x="12" y="22" width="40" height="4" rx="1" fill="#F57C00"/>
  <!-- Hat ridge -->
  <rect x="28" y="8" width="8" height="16" rx="2" fill="#FFB74D" opacity="0.4"/>
  <!-- Face -->
  <ellipse cx="32" cy="36" rx="13" ry="14" fill="#FFCC80"/>
  <!-- Goggles strap -->
  <path d="M16 30H48" stroke="#546E7A" stroke-width="1.5"/>
  <!-- Goggles -->
  <ellipse cx="25" cy="32" rx="5" ry="4" fill="#546E7A"/>
  <ellipse cx="39" cy="32" rx="5" ry="4" fill="#546E7A"/>
  <ellipse cx="25" cy="32" rx="3.5" ry="2.8" fill="#90CAF9"/>
  <ellipse cx="39" cy="32" rx="3.5" ry="2.8" fill="#90CAF9"/>
  <!-- Goggle shine -->
  <ellipse cx="23.5" cy="31" rx="1.2" ry="0.8" fill="white" opacity="0.6"/>
  <ellipse cx="37.5" cy="31" rx="1.2" ry="0.8" fill="white" opacity="0.6"/>
  <!-- Goggle bridge -->
  <rect x="30" y="30" width="4" height="3" rx="1" fill="#546E7A"/>
  <!-- Nose -->
  <path d="M32 37L30 40H34Z" fill="#E0A060"/>
  <!-- Mouth - friendly -->
  <path d="M28 43C30 45 34 45 36 43" stroke="#5D4037" stroke-width="1.2" fill="none"/>
  <!-- Sideburns -->
  <path d="M18 30V38" stroke="#6D4C41" stroke-width="2"/>
  <path d="M46 30V38" stroke="#6D4C41" stroke-width="2"/>
  <!-- Shoulders - work vest -->
  <path d="M8 58C8 50 18 46 32 46C46 46 56 50 56 58V64H8V58Z" fill="#FF9800"/>
  <!-- Vest details -->
  <rect x="28" y="46" width="8" height="8" rx="1" fill="#F57C00"/>
  <!-- Safety stripes -->
  <rect x="8" y="58" width="48" height="3" fill="#FDD835" opacity="0.6"/>
  <rect x="8" y="58" width="4" height="3" fill="#212121" opacity="0.3"/>
  <rect x="16" y="58" width="4" height="3" fill="#212121" opacity="0.3"/>
  <rect x="24" y="58" width="4" height="3" fill="#212121" opacity="0.3"/>
  <rect x="32" y="58" width="4" height="3" fill="#212121" opacity="0.3"/>
  <rect x="40" y="58" width="4" height="3" fill="#212121" opacity="0.3"/>
  <rect x="48" y="58" width="4" height="3" fill="#212121" opacity="0.3"/>
</svg>