<svg xmlns="http://www.w3.org/2000/svg" viewBox="0 0 64 64" fill="none">
  <!-- Hat -->
  <path d="M32 2L18 28H46Z" fill="#7B1FA2"/>
  <path d="M32 2L22 28H42Z" fill="#9C27B0" opacity="0.5"/>
  <!-- Hat brim -->
  <ellipse cx="32" cy="28" rx="18" ry="4" fill="#7B1FA2"/>
  <!-- Hat star -->
  <path d="M32 12L33.5 16L37 16L34 18.5L35.5 22L32 20L28.5 22L30 18.5L27 16L30.5 16Z" fill="#FFD700"/>
  <!-- Face -->
  <ellipse cx="32" cy="36" rx="12" ry="12" fill="#FFCC80"/>
  <!-- Eyes - wise -->
  <circle cx="27" cy="34" r="2.5" fill="white"/>
  <circle cx="37" cy="34" r="2.5" fill="white"/>
  <circle cx="27" cy="34" r="1.2" fill="#1A237E"/>
  <circle cx="37" cy="34" r="1.2" fill="#1A237E"/>
  <!-- Mystical eye glow -->
  <circle cx="27" cy="34" r="3" fill="#CE93D8" opacity="0.3"/>
  <circle cx="37" cy="34" r="3" fill="#CE93D8" opacity="0.3"/>
  <!-- Eyebrows - bushy -->
  <path d="M22 30C24 29 28 29 30 31" stroke="#BDBDBD" stroke-width="1.5" stroke-linecap="round"/>
  <path d="M42 30C40 29 36 29 34 31" stroke="#BDBDBD" stroke-width="1.5" stroke-linecap="round"/>
  <!-- Nose -->
  <path d="M32 37L30 40H34Z" fill="#E0A060"/>
  <!-- Beard -->
  <path d="M22 42C22 42 24 40 32 40C40 40 42 42 42 42C42 50 38 58 32 62C26 58 22 50 22 42Z" fill="#E0E0E0"/>
  <path d="M26 42C26 42 28 41 32 41C36 41 38 42 38 42C38 48 36 54 32 58C28 54 26 48 26 42Z" fill="#F5F5F5"/>
  <!-- Shoulders/robe -->
  <path d="M8 58C8 50 18 46 32 46C46 46 56 50 56 58V64H8V58Z" fill="#6A1B9A"/>
  <!-- Robe collar -->
  <path d="M26 46L32 52L38 46" stroke="#4A148C" stroke-width="2" fill="none"/>
</svg>