<svg xmlns="http://www.w3.org/2000/svg" viewBox="0 0 64 64" fill="none">
  <!-- Head wrap -->
  <ellipse cx="32" cy="30" rx="16" ry="18" fill="#212121"/>
  <!-- Face opening - only eyes area -->
  <path d="M18 26C18 26 22 24 32 24C42 24 46 26 46 26V34C46 34 42 36 32 36C22 36 18 34 18 34V26Z" fill="#FFCC80"/>
  <!-- Mask bottom -->
  <path d="M18 34C18 34 22 36 32 36C42 36 46 34 46 34V42C46 42 42 46 32 46C22 46 18 42 18 42V34Z" fill="#212121"/>
  <!-- Mask top -->
  <path d="M18 26C18 26 22 24 32 24C42 24 46 26 46 26V22C46 16 40 10 32 10C24 10 18 16 18 22V26Z" fill="#212121"/>
  <!-- Eyes - piercing blue -->
  <path d="M22 28L30 27L30 31L22 32Z" fill="white"/>
  <path d="M42 28L34 27L34 31L42 32Z" fill="white"/>
  <circle cx="26" cy="29.5" r="2" fill="#4FC3F7"/>
  <circle cx="38" cy="29.5" r="2" fill="#4FC3F7"/>
  <circle cx="26" cy="29.5" r="1" fill="#0D47A1"/>
  <circle cx="38" cy="29.5" r="1" fill="#0D47A1"/>
  <!-- Eye glow -->
  <circle cx="26" cy="29.5" r="3" fill="#4FC3F7" opacity="0.15"/>
  <circle cx="38" cy="29.5" r="3" fill="#4FC3F7" opacity="0.15"/>
  <!-- Eyebrows -->
  <path d="M22 26L30 25" stroke="#333" stroke-width="1.2" stroke-linecap="round"/>
  <path d="M42 26L34 25" stroke="#333" stroke-width="1.2" stroke-linecap="round"/>
  <!-- Mask wrinkle lines -->
  <path d="M18 30H20" stroke="#333" stroke-width="0.5"/>
  <path d="M44 30H46" stroke="#333" stroke-width="0.5"/>
  <!-- Head wrap tail -->
  <path d="M46 22C48 20 52 22 54 18C52 24 50 22 46 26Z" fill="#212121"/>
  <path d="M46 24C48 22 50 24 52 20" stroke="#333" stroke-width="0.8"/>
  <!-- Shoulders -->
  <path d="M10 58C10 48 20 44 32 44C44 44 54 48 54 58V64H10V58Z" fill="#212121"/>
  <!-- Shoulder armor hints -->
  <path d="M14 52L20 48" stroke="#424242" stroke-width="1.5"/>
  <path d="M50 52L44 48" stroke="#424242" stroke-width="1.5"/>
  <path d="M16 56L22 52" stroke="#424242" stroke-width="1.5"/>
  <path d="M48 56L42 52" stroke="#424242" stroke-width="1.5"/>
</svg>