<svg xmlns="http://www.w3.org/2000/svg" viewBox="0 0 64 64" fill="none">
  <!-- Hair -->
  <path d="M16 20C16 12 22 6 32 6C42 6 48 12 48 20V28H16V20Z" fill="#455A64"/>
  <!-- Face -->
  <ellipse cx="32" cy="32" rx="14" ry="16" fill="#FFCC80"/>
  <!-- Bandana -->
  <path d="M16 22C16 22 20 18 32 18C44 18 48 22 48 22V26C48 26 44 22 32 22C20 22 16 26 16 26V22Z" fill="#D32F2F"/>
  <rect x="14" y="22" width="36" height="4" rx="1" fill="#D32F2F"/>
  <!-- Bandana knot -->
  <path d="M48 23L54 20L53 24L48 25Z" fill="#D32F2F"/>
  <path d="M48 23L54 26L53 22L48 21Z" fill="#B71C1C"/>
  <!-- Eyes - determined -->
  <path d="M24 30L28 28L30 30L28 31Z" fill="#263238"/>
  <path d="M40 30L36 28L34 30L36 31Z" fill="#263238"/>
  <circle cx="27" cy="30" r="1.5" fill="#263238"/>
  <circle cx="37" cy="30" r="1.5" fill="#263238"/>
  <!-- Eyebrows - determined -->
  <path d="M23 27L30 26" stroke="#455A64" stroke-width="1.5" stroke-linecap="round"/>
  <path d="M41 27L34 26" stroke="#455A64" stroke-width="1.5" stroke-linecap="round"/>
  <!-- Nose -->
  <path d="M32 33L30 37H34Z" fill="#E0A060"/>
  <!-- Mouth - stern -->
  <line x1="29" y1="40" x2="35" y2="40" stroke="#5D4037" stroke-width="1.2" stroke-linecap="round"/>
  <!-- Shoulders/collar -->
  <path d="M10 58C10 48 20 44 32 44C44 44 54 48 54 58V64H10V58Z" fill="#546E7A"/>
  <!-- Kimono collar -->
  <path d="M26 44L32 54L38 44" stroke="#37474F" stroke-width="2" fill="none"/>
  <!-- Hair sides -->
  <path d="M16 20V32C16 32 18 28 18 24Z" fill="#455A64"/>
  <path d="M48 20V32C48 32 46 28 46 24Z" fill="#455A64"/>
</svg>