<svg xmlns="http://www.w3.org/2000/svg" viewBox="0 0 64 64" fill="none">
  <ellipse cx="32" cy="36" rx="28" ry="16" fill="#FFB300"/>
  <ellipse cx="32" cy="36" rx="24" ry="12" fill="#FFF8E1"/>
  <rect x="4" y="16" width="8" height="22" fill="#FFB300"/>
  <rect x="14" y="12" width="8" height="26" fill="#FFC107"/>
  <rect x="24" y="10" width="8" height="28" fill="#FFB300"/>
  <rect x="34" y="10" width="8" height="28" fill="#FFC107"/>
  <rect x="44" y="12" width="8" height="26" fill="#FFB300"/>
  <rect x="54" y="16" width="8" height="22" fill="#FFC107"/>
  <path d="M6 16Q32 8 58 16" stroke="#FF8F00" stroke-width="2" fill="none"/>
  <line x1="22" y1="44" x2="32" y2="32" stroke="#D32F2F" stroke-width="3" stroke-linecap="round"/>
  <line x1="42" y1="44" x2="32" y2="32" stroke="#D32F2F" stroke-width="3" stroke-linecap="round"/>
  <polygon points="22,44 19,48 25,48" fill="#D32F2F"/>
  <polygon points="42,44 39,48 45,48" fill="#D32F2F"/>
  <polygon points="32,32 29,28 35,28" fill="#D32F2F"/>
</svg>