<svg xmlns="http://www.w3.org/2000/svg" viewBox="0 0 64 64" fill="none">
  <line x1="32" y1="28" x2="32" y2="58" stroke="#BDBDBD" stroke-width="3" stroke-linecap="round"/>
  <circle cx="32" cy="20" r="16" fill="#E91E63"/>
  <path d="M32 4A16 16 0 0 1 48 20" fill="#F06292"/>
  <path d="M32 4A16 16 0 0 0 16 20" fill="#C2185B"/>
  <path d="M20 10L44 30" stroke="#FFFFFF" stroke-width="2" opacity="0.3"/>
  <path d="M18 18L42 18" stroke="#FFFFFF" stroke-width="2" opacity="0.3"/>
  <circle cx="14" cy="44" r="6" fill="#4CAF50"/>
  <circle cx="14" cy="44" r="4" fill="#66BB6A"/>
  <polygon points="14,38 10,34 12,38" fill="#4CAF50"/>
  <polygon points="14,38 18,34 16,38" fill="#4CAF50"/>
  <circle cx="50" cy="40" r="6" fill="#FFD600"/>
  <circle cx="50" cy="40" r="4" fill="#FFEE58"/>
  <polygon points="50,34 46,30 48,34" fill="#FFD600"/>
  <polygon points="50,34 54,30 52,34" fill="#FFD600"/>
  <rect x="8" y="52" width="12" height="6" rx="3" fill="#E91E63"/>
  <rect x="44" y="50" width="12" height="6" rx="3" fill="#4CAF50"/>
</svg>