<svg xmlns="http://www.w3.org/2000/svg" viewBox="0 0 64 64" fill="none">
  <rect x="0" y="0" width="64" height="64" rx="4" fill="#263238"/>
  <rect x="14" y="20" width="36" height="38" fill="#37474F"/>
  <rect x="8" y="14" width="10" height="44" fill="#455A64"/>
  <rect x="46" y="14" width="10" height="44" fill="#455A64"/>
  <rect x="8" y="10" width="3" height="6" fill="#546E7A"/>
  <rect x="15" y="10" width="3" height="6" fill="#546E7A"/>
  <rect x="46" y="10" width="3" height="6" fill="#546E7A"/>
  <rect x="53" y="10" width="3" height="6" fill="#546E7A"/>
  <rect x="26" y="8" width="12" height="16" fill="#455A64"/>
  <rect x="24" y="4" width="3" height="6" fill="#546E7A"/>
  <rect x="37" y="4" width="3" height="6" fill="#546E7A"/>
  <rect x="28" y="40" width="8" height="18" rx="4" fill="#263238"/>
  <rect x="16" y="26" width="6" height="8" rx="1" fill="#F44336" opacity="0.8"/>
  <rect x="42" y="26" width="6" height="8" rx="1" fill="#F44336" opacity="0.8"/>
  <rect x="29" y="14" width="6" height="8" rx="1" fill="#F44336" opacity="0.8"/>
  <path d="M20 8C18 4 14 6 16 2" stroke="#37474F" stroke-width="1.5" fill="none"/>
  <path d="M48 6C50 2 54 4 52 0" stroke="#37474F" stroke-width="1.5" fill="none"/>
</svg>