<svg xmlns="http://www.w3.org/2000/svg" viewBox="0 0 64 64" fill="none">
  <rect x="0" y="28" width="64" height="36" rx="0" fill="#1565C0"/>
  <path d="M0 28Q8 22 16 28Q24 34 32 28Q40 22 48 28Q56 34 64 28V34Q56 40 48 34Q40 28 32 34Q24 40 16 34Q8 28 0 34Z" fill="#1976D2"/>
  <path d="M0 38Q8 32 16 38Q24 44 32 38Q40 32 48 38Q56 44 64 38V44Q56 50 48 44Q40 38 32 44Q24 50 16 44Q8 38 0 44Z" fill="#1565C0" opacity="0.6"/>
  <line x1="32" y1="16" x2="32" y2="52" stroke="#78909C" stroke-width="3"/>
  <line x1="24" y1="52" x2="40" y2="52" stroke="#78909C" stroke-width="3"/>
  <path d="M28 52L32 44L36 52" stroke="#78909C" stroke-width="2" fill="none"/>
  <path d="M26 16L32 8L38 16" stroke="#78909C" stroke-width="2.5" fill="none"/>
  <line x1="26" y1="16" x2="38" y2="16" stroke="#78909C" stroke-width="2.5"/>
  <path d="M0 20Q8 14 16 20Q24 26 32 20Q40 14 48 20Q56 26 64 20" stroke="#90CAF9" stroke-width="1.5" fill="none" opacity="0.4"/>
</svg>