<svg xmlns="http://www.w3.org/2000/svg" viewBox="0 0 64 64" fill="none">
  <rect x="0" y="0" width="64" height="64" rx="4" fill="#1A237E"/>
  <circle cx="8" cy="8" r="1" fill="#FFFFFF"/>
  <circle cx="52" cy="12" r="1.5" fill="#FFFFFF"/>
  <circle cx="16" cy="50" r="1" fill="#FFFFFF"/>
  <circle cx="56" cy="44" r="1" fill="#FFFFFF"/>
  <circle cx="40" cy="4" r="1" fill="#FFFFFF" opacity="0.6"/>
  <circle cx="4" cy="32" r="1" fill="#FFFFFF" opacity="0.6"/>
  <circle cx="58" cy="28" r="1" fill="#FFFFFF" opacity="0.5"/>
  <rect x="20" y="22" width="24" height="20" rx="2" fill="#E0E0E0"/>
  <rect x="18" y="26" width="4" height="12" fill="#BDBDBD"/>
  <rect x="42" y="26" width="4" height="12" fill="#BDBDBD"/>
  <rect x="24" y="26" width="6" height="6" fill="#42A5F5"/>
  <rect x="32" y="26" width="6" height="6" fill="#42A5F5"/>
  <rect x="14" y="30" width="4" height="4" fill="#FFD600"/>
  <rect x="46" y="30" width="4" height="4" fill="#FFD600"/>
  <rect x="28" y="42" width="8" height="6" fill="#BDBDBD"/>
  <rect x="26" y="48" width="12" height="4" rx="1" fill="#90A4AE"/>
</svg>