<svg xmlns="http://www.w3.org/2000/svg" viewBox="0 0 64 64" fill="none">
  <rect x="0" y="0" width="64" height="64" rx="4" fill="#1A1A2E"/>
  <rect x="6" y="20" width="14" height="40" fill="#37474F"/>
  <rect x="24" y="10" width="16" height="50" fill="#455A64"/>
  <rect x="44" y="24" width="14" height="36" fill="#37474F"/>
  <rect x="8" y="24" width="4" height="4" fill="#E91E63"/>
  <rect x="14" y="24" width="4" height="4" fill="#00BCD4"/>
  <rect x="8" y="32" width="4" height="4" fill="#00BCD4"/>
  <rect x="14" y="32" width="4" height="4" fill="#E91E63"/>
  <rect x="26" y="14" width="5" height="5" fill="#E91E63"/>
  <rect x="33" y="14" width="5" height="5" fill="#00BCD4"/>
  <rect x="26" y="22" width="5" height="5" fill="#00BCD4"/>
  <rect x="33" y="22" width="5" height="5" fill="#E91E63"/>
  <rect x="26" y="30" width="12" height="8" rx="1" fill="#E91E63" opacity="0.8"/>
  <text x="32" y="37" text-anchor="middle" font-family="serif" font-size="7" fill="#FFFFFF">ZN</text>
  <rect x="46" y="28" width="4" height="4" fill="#E91E63"/>
  <rect x="52" y="28" width="4" height="4" fill="#00BCD4"/>
  <rect x="46" y="36" width="4" height="4" fill="#00BCD4"/>
  <line x1="0" y1="60" x2="64" y2="60" stroke="#546E7A" stroke-width="4"/>
</svg>