<svg xmlns="http://www.w3.org/2000/svg" viewBox="0 0 64 64" fill="none">
  <rect x="0" y="52" width="64" height="12" fill="#5D4037"/>
  <polygon points="32,14 4,56 60,56" fill="#795548"/>
  <polygon points="32,14 32,56 60,56" fill="#6D4C41"/>
  <polygon points="26,14 38,14 42,20 22,20" fill="#F44336"/>
  <polygon points="24,18 40,18 44,26 20,26" fill="#FF6F00" opacity="0.8"/>
  <ellipse cx="32" cy="14" rx="8" ry="4" fill="#F44336"/>
  <ellipse cx="32" cy="14" rx="5" ry="2.5" fill="#FF6F00"/>
  <circle cx="28" cy="8" r="3" fill="#F44336" opacity="0.6"/>
  <circle cx="36" cy="6" r="2" fill="#FF6F00" opacity="0.5"/>
  <circle cx="32" cy="4" r="2.5" fill="#F44336" opacity="0.4"/>
  <path d="M28 26L24 40L20 56" stroke="#F44336" stroke-width="3" opacity="0.6"/>
  <path d="M38 24L42 42L46 56" stroke="#FF6F00" stroke-width="2" opacity="0.5"/>
</svg>