<svg xmlns="http://www.w3.org/2000/svg" viewBox="0 0 64 64" fill="none">
  <!-- Handle -->
  <rect x="29" y="20" width="5" height="38" rx="2" fill="#5D4037" stroke="#3E2723" stroke-width="0.8"/>
  <!-- Handle wrap -->
  <line x1="30" y1="42" x2="33" y2="42" stroke="#6D4C41" stroke-width="0.6"/>
  <line x1="30" y1="46" x2="33" y2="46" stroke="#6D4C41" stroke-width="0.6"/>
  <line x1="30" y1="50" x2="33" y2="50" stroke="#6D4C41" stroke-width="0.6"/>
  <!-- Axe head -->
  <path d="M29 10 Q20 8, 14 14 Q10 20, 12 26 Q14 30, 20 30 L29 28Z" fill="#78909C" stroke="#546E7A" stroke-width="1"/>
  <!-- Axe head right -->
  <path d="M34 10 Q44 8, 50 14 Q54 20, 52 26 Q50 30, 44 30 L34 28Z" fill="#78909C" stroke="#546E7A" stroke-width="1"/>
  <!-- Blade edge left -->
  <path d="M14 14 Q10 20, 12 26" fill="none" stroke="#B0BEC5" stroke-width="1.5"/>
  <!-- Blade edge right -->
  <path d="M50 14 Q54 20, 52 26" fill="none" stroke="#B0BEC5" stroke-width="1.5"/>
  <!-- Fire on top -->
  <path d="M28 12 Q26 6, 31.5 2 Q28 8, 31.5 8 Q30 4, 35 2 Q33 8, 35 12" fill="#FF6B35" opacity="0.8"/>
  <path d="M30 10 Q29 6, 31.5 4 Q31 8, 33 10" fill="#FFAB40" opacity="0.9"/>
  <!-- Fire glow -->
  <circle cx="31.5" cy="8" r="8" fill="#FF6B35" opacity="0.12"/>
  <!-- Pommel -->
  <ellipse cx="31.5" cy="58" rx="3" ry="1.5" fill="#4E342E"/>
</svg>