<svg xmlns="http://www.w3.org/2000/svg" viewBox="0 0 64 64" fill="none">
  <!-- Main tube -->
  <rect x="8" y="24" width="40" height="10" rx="5" fill="#546E7A" stroke="#37474F" stroke-width="0.8"/>
  <!-- Front opening -->
  <ellipse cx="48" cy="29" rx="5" ry="5" fill="#37474F" stroke="#263238" stroke-width="0.5"/>
  <ellipse cx="48" cy="29" rx="3.5" ry="3.5" fill="#263238"/>
  <!-- Sight -->
  <rect x="30" y="20" width="3" height="5" rx="1" fill="#455A64"/>
  <!-- Handle -->
  <path d="M20 34 L24 34 L22 46 L18 46Z" fill="#5D4037" stroke="#3E2723" stroke-width="0.5"/>
  <!-- Shoulder rest -->
  <path d="M8 24 Q4 22, 4 28 Q4 34, 8 34" fill="#455A64" stroke="#37474F" stroke-width="0.5"/>
  <!-- Trigger -->
  <rect x="22" y="34" width="2" height="4" rx="0.5" fill="#455A64"/>
  <!-- Flame from barrel -->
  <ellipse cx="56" cy="29" rx="6" ry="4" fill="#FF6B35" opacity="0.8"/>
  <ellipse cx="58" cy="29" rx="4" ry="2.5" fill="#FFAB40" opacity="0.9"/>
  <ellipse cx="59" cy="29" rx="2" ry="1.5" fill="#FFF176"/>
  <!-- Flame glow -->
  <circle cx="56" cy="29" r="10" fill="#FF6B35" opacity="0.15"/>
  <!-- Small flames -->
  <path d="M54 24 Q56 20, 58 22 Q56 21, 55 24Z" fill="#FF6B35" opacity="0.6"/>
  <path d="M54 34 Q56 38, 58 36 Q56 37, 55 34Z" fill="#FF6B35" opacity="0.6"/>
</svg>