<svg xmlns="http://www.w3.org/2000/svg" viewBox="0 0 32 32" width="32" height="32">
  <!-- Boomerang - Wood brown/tan curved shape -->
  <defs>
    <linearGradient id="bm_g" x1="0" y1="0" x2="1" y2="1">
      <stop offset="0%" stop-color="#D4A04A"/>
      <stop offset="50%" stop-color="#A0722A"/>
      <stop offset="100%" stop-color="#7A5520"/>
    </linearGradient>
  </defs>
  <!-- Main boomerang shape -->
  <path d="M4 8 Q8 4 16 6 Q20 7 22 10 L20 12 Q18 9 14 8 Q10 7 8 10 Q6 13 10 16 Q8 14 6 10Z" fill="url(#bm_g)" stroke="#5A3A10" stroke-width="0.8"/>
  <path d="M22 10 Q26 14 28 22 Q29 26 26 28 L24 26 Q26 24 25 20 Q24 16 20 12Z" fill="url(#bm_g)" stroke="#5A3A10" stroke-width="0.8"/>
  <!-- Wood grain lines -->
  <path d="M7 9 Q12 8 18 10 Q22 12 25 18" fill="none" stroke="#8A6228" stroke-width="0.5" opacity="0.6"/>
  <path d="M6 11 Q10 10 16 12 Q20 14 23 20" fill="none" stroke="#8A6228" stroke-width="0.5" opacity="0.4"/>
  <!-- Highlight -->
  <path d="M10 7 Q14 6 18 8" fill="none" stroke="#E8C06A" stroke-width="0.6" opacity="0.5"/>
  <!-- Painted stripe -->
  <path d="M14 8 Q16 8 18 9 L17 11 Q15 10 13 10Z" fill="#C83030" stroke="none" opacity="0.8"/>
  <path d="M23 16 Q24 18 25 22 L23 21 Q22 18 22 15Z" fill="#C83030" stroke="none" opacity="0.8"/>
</svg>