<svg xmlns="http://www.w3.org/2000/svg" viewBox="0 0 64 64" fill="none">
  <!-- Blade -->
  <path d="M48 8 C46 10, 20 38, 16 44 L14 42 C18 36, 44 10, 46 6Z" fill="#B0BEC5" stroke="#78909C" stroke-width="1"/>
  <!-- Blade edge highlight -->
  <path d="M47 9 C45 11, 21 37, 17 43 L16 44 C20 38, 44 10, 48 8Z" fill="#CFD8DC" opacity="0.6"/>
  <!-- Curve of katana -->
  <path d="M48 8 Q50 6, 52 5 L50 4 Q48 5, 46 6Z" fill="#ECEFF1"/>
  <!-- Guard (tsuba) -->
  <ellipse cx="15" cy="43" rx="4" ry="2.5" transform="rotate(-45 15 43)" fill="#5D4037" stroke="#3E2723" stroke-width="0.8"/>
  <!-- Handle (tsuka) -->
  <rect x="7" y="47" width="12" height="3.5" rx="1.5" transform="rotate(-45 13 49)" fill="#4E342E"/>
  <!-- Handle wrap pattern -->
  <line x1="9" y1="50" x2="10" y2="49" stroke="#6D4C41" stroke-width="0.6"/>
  <line x1="10.5" y1="51.5" x2="11.5" y2="50.5" stroke="#6D4C41" stroke-width="0.6"/>
  <line x1="12" y1="53" x2="13" y2="52" stroke="#6D4C41" stroke-width="0.6"/>
  <!-- Pommel -->
  <circle cx="7.5" cy="54.5" r="1.5" fill="#5D4037" stroke="#3E2723" stroke-width="0.5"/>
</svg>