<svg xmlns="http://www.w3.org/2000/svg" viewBox="0 0 64 64" fill="none">
  <!-- Outer glow -->
  <circle cx="32" cy="32" r="24" fill="#FFD600" opacity="0.08"/>
  <!-- Main lightning bolt -->
  <path d="M34 2 L26 26 L34 26 L24 46 L32 46 L22 62 L30 42 L22 42 L32 22 L24 22Z" fill="#FFD600" stroke="#F9A825" stroke-width="0.8"/>
  <!-- Inner highlight -->
  <path d="M33 6 L28 24 L33 24 L26 40 L30 40 L24 56" fill="none" stroke="#FFF9C4" stroke-width="1.5" opacity="0.6"/>
  <!-- Fork right -->
  <path d="M32 26 L44 18 L38 24 L48 20" stroke="#FFD600" stroke-width="2" stroke-linecap="round" fill="none"/>
  <!-- Fork left bottom -->
  <path d="M26 46 L14 50 L20 46 L10 52" stroke="#FFD600" stroke-width="2" stroke-linecap="round" fill="none"/>
  <!-- Small sparks -->
  <circle cx="48" cy="20" r="2" fill="#FFD600" opacity="0.5"/>
  <circle cx="10" cy="52" r="2" fill="#FFD600" opacity="0.5"/>
  <!-- Electric particles -->
  <circle cx="42" cy="12" r="1" fill="#FFF176" opacity="0.7"/>
  <circle cx="50" cy="24" r="0.8" fill="#FFF176" opacity="0.6"/>
  <circle cx="8" cy="46" r="1" fill="#FFF176" opacity="0.6"/>
  <circle cx="16" cy="56" r="0.8" fill="#FFF176" opacity="0.5"/>
</svg>