<svg xmlns="http://www.w3.org/2000/svg" viewBox="0 0 64 64" fill="none">
  <!-- Shaft -->
  <line x1="22" y1="58" x2="38" y2="10" stroke="#4E342E" stroke-width="4" stroke-linecap="round"/>
  <!-- Blade -->
  <path d="M38 10 Q42 6, 50 6 Q52 6, 52 10 Q52 16, 44 24 Q40 28, 36 28 L34 22 Q36 18, 38 14Z" fill="#9C27B0" stroke="#7B1FA2" stroke-width="1"/>
  <!-- Blade inner edge -->
  <path d="M38 12 Q42 8, 48 8 Q50 10, 48 16 Q44 22, 38 24" fill="#CE93D8" opacity="0.3"/>
  <!-- Blade edge highlight -->
  <path d="M44 24 Q40 28, 36 28 L35 26 Q39 26, 43 22" fill="#E1BEE7" opacity="0.5"/>
  <!-- Dark aura -->
  <circle cx="44" cy="16" r="12" fill="#9C27B0" opacity="0.1"/>
  <!-- Shaft wrapping -->
  <line x1="26" y1="44" x2="28" y2="42" stroke="#6D4C41" stroke-width="0.6"/>
  <line x1="27" y1="48" x2="29" y2="46" stroke="#6D4C41" stroke-width="0.6"/>
  <!-- Bottom spike -->
  <circle cx="21" cy="59" r="1.5" fill="#4E342E"/>
</svg>