<svg xmlns="http://www.w3.org/2000/svg" viewBox="0 0 32 32" width="32" height="32">
  <!-- Shadow Claw - Dark purple dual claw marks -->
  <defs>
    <linearGradient id="sc_g" x1="0" y1="0" x2="1" y2="1">
      <stop offset="0%" stop-color="#7B2D8E"/>
      <stop offset="100%" stop-color="#3A1050"/>
    </linearGradient>
  </defs>
  <!-- Left claw -->
  <path d="M6 4 L10 14 L8 15 L3 6Z" fill="url(#sc_g)" stroke="#2A0A3A" stroke-width="0.5"/>
  <path d="M10 3 L12 14 L10 15 L7 5Z" fill="url(#sc_g)" stroke="#2A0A3A" stroke-width="0.5"/>
  <path d="M14 4 L14 14 L12 14 L11 5Z" fill="url(#sc_g)" stroke="#2A0A3A" stroke-width="0.5"/>
  <!-- Right claw -->
  <path d="M18 4 L20 14 L18 14 L17 5Z" fill="url(#sc_g)" stroke="#2A0A3A" stroke-width="0.5"/>
  <path d="M22 3 L22 14 L20 15 L19 5Z" fill="url(#sc_g)" stroke="#2A0A3A" stroke-width="0.5"/>
  <path d="M26 4 L24 14 L22 15 L25 6Z" fill="url(#sc_g)" stroke="#2A0A3A" stroke-width="0.5"/>
  <!-- Palm base -->
  <ellipse cx="11" cy="17" rx="5" ry="3" fill="#4A1A60" stroke="#2A0A3A" stroke-width="0.5"/>
  <ellipse cx="21" cy="17" rx="5" ry="3" fill="#4A1A60" stroke="#2A0A3A" stroke-width="0.5"/>
  <!-- Shadow wisps -->
  <path d="M8 20 Q10 26 6 30" fill="none" stroke="#6B2D8E" stroke-width="1" opacity="0.6"/>
  <path d="M16 19 Q16 25 16 30" fill="none" stroke="#6B2D8E" stroke-width="1" opacity="0.5"/>
  <path d="M24 20 Q22 26 26 30" fill="none" stroke="#6B2D8E" stroke-width="1" opacity="0.6"/>
</svg>