<svg xmlns="http://www.w3.org/2000/svg" viewBox="0 0 64 64" fill="none">
  <!-- Ice glow -->
  <circle cx="32" cy="32" r="20" fill="#4FC3F7" opacity="0.1"/>
  <!-- Shuriken body - 4 pointed star -->
  <path d="M32 4 L36 28 L60 32 L36 36 L32 60 L28 36 L4 32 L28 28Z" fill="#4FC3F7" stroke="#0288D1" stroke-width="1"/>
  <!-- Inner details -->
  <path d="M32 12 L34 28 L32 30 L30 28Z" fill="#B3E5FC" opacity="0.5"/>
  <path d="M52 32 L36 34 L34 32 L36 30Z" fill="#B3E5FC" opacity="0.5"/>
  <path d="M32 52 L30 36 L32 34 L34 36Z" fill="#B3E5FC" opacity="0.5"/>
  <path d="M12 32 L28 30 L30 32 L28 34Z" fill="#B3E5FC" opacity="0.5"/>
  <!-- Center circle -->
  <circle cx="32" cy="32" r="5" fill="#0288D1" stroke="#01579B" stroke-width="0.5"/>
  <circle cx="32" cy="32" r="2.5" fill="#4FC3F7"/>
  <!-- Center hole -->
  <circle cx="32" cy="32" r="1.2" fill="#01579B"/>
  <!-- Blade edge highlights -->
  <line x1="32" y1="4" x2="34" y2="28" stroke="#E1F5FE" stroke-width="0.5" opacity="0.7"/>
  <line x1="60" y1="32" x2="36" y2="34" stroke="#E1F5FE" stroke-width="0.5" opacity="0.7"/>
</svg>