<svg xmlns="http://www.w3.org/2000/svg" viewBox="0 0 64 64" fill="none">
  <!-- Staff shaft -->
  <rect x="29" y="18" width="5" height="40" rx="2" fill="#5D4037" stroke="#3E2723" stroke-width="0.8"/>
  <!-- Shaft detail lines -->
  <line x1="30" y1="30" x2="33" y2="30" stroke="#6D4C41" stroke-width="0.5"/>
  <line x1="30" y1="40" x2="33" y2="40" stroke="#6D4C41" stroke-width="0.5"/>
  <!-- Crystal holder -->
  <path d="M27 20 Q31.5 22, 36 20 L35 18 Q31.5 16, 28 18Z" fill="#795548"/>
  <!-- Ice crystal -->
  <polygon points="31.5,4 37,14 31.5,18 26,14" fill="#4FC3F7" stroke="#0288D1" stroke-width="0.8"/>
  <!-- Crystal inner shine -->
  <polygon points="31.5,7 34,13 31.5,16 29,13" fill="#B3E5FC" opacity="0.6"/>
  <!-- Crystal glow -->
  <circle cx="31.5" cy="12" r="10" fill="#4FC3F7" opacity="0.15"/>
  <!-- Small ice shards -->
  <polygon points="22,12 25,10 24,14" fill="#4FC3F7" opacity="0.5"/>
  <polygon points="41,12 38,10 39,14" fill="#4FC3F7" opacity="0.5"/>
  <!-- Bottom cap -->
  <ellipse cx="31.5" cy="57" rx="3.5" ry="1.5" fill="#4E342E"/>
</svg>