<svg xmlns="http://www.w3.org/2000/svg" viewBox="0 0 64 64" fill="none">
  <!-- Handle -->
  <rect x="8" y="44" width="6" height="16" rx="2" fill="#5D4037" stroke="#3E2723" stroke-width="0.8"/>
  <!-- Handle detail -->
  <line x1="9" y1="48" x2="13" y2="48" stroke="#6D4C41" stroke-width="0.5"/>
  <line x1="9" y1="52" x2="13" y2="52" stroke="#6D4C41" stroke-width="0.5"/>
  <!-- Handle pommel -->
  <circle cx="11" cy="60" r="2" fill="#4E342E"/>
  <!-- Whip coil -->
  <path d="M11 44 Q14 38, 20 36 Q30 32, 24 24 Q18 16, 30 14 Q42 12, 36 20 Q32 26, 42 28 Q52 30, 48 22 Q44 14, 52 10 Q56 8, 58 6"
        fill="none" stroke="#78909C" stroke-width="3" stroke-linecap="round"/>
  <!-- Whip highlight -->
  <path d="M11 44 Q14 38, 20 36 Q30 32, 24 24 Q18 16, 30 14 Q42 12, 36 20 Q32 26, 42 28 Q52 30, 48 22 Q44 14, 52 10 Q56 8, 58 6"
        fill="none" stroke="#B0BEC5" stroke-width="1" stroke-linecap="round" opacity="0.4"/>
  <!-- Whip tip -->
  <path d="M58 6 L62 2" stroke="#90A4AE" stroke-width="2" stroke-linecap="round"/>
  <!-- Motion lines -->
  <path d="M56 4 Q58 2, 60 4" fill="none" stroke="#B0BEC5" stroke-width="0.5" opacity="0.5"/>
</svg>