<svg xmlns="http://www.w3.org/2000/svg" viewBox="0 0 64 64" fill="none">
  <polygon points="32,4 52,18 52,46 32,60 12,46 12,18" fill="#9C27B0"/>
  <polygon points="32,4 12,18 12,46 32,60" fill="#AB47BC"/>
  <polygon points="32,10 48,22 48,42 32,54 16,42 16,22" fill="#CE93D8"/>
  <polygon points="32,10 16,22 16,42 32,54" fill="#BA68C8"/>
  <polygon points="32,16 42,24 42,40 32,48 22,40 22,24" fill="#E1BEE7"/>
  <polygon points="32,16 22,24 22,40 32,48" fill="#CE93D8"/>
  <line x1="32" y1="4" x2="32" y2="60" stroke="#FFFFFF" stroke-width="0.5" opacity="0.3"/>
</svg>