<svg xmlns="http://www.w3.org/2000/svg" viewBox="0 0 64 64" fill="none">
  <path d="M32 4C32 4 24 4 24 12C24 18 28 20 28 28C28 36 20 38 20 46C20 56 26 60 32 60C38 60 44 56 44 46C44 38 36 36 36 28C36 20 40 18 40 12C40 4 32 4 32 4Z" fill="#4CAF50"/>
  <path d="M32 4C32 4 24 4 24 12C24 18 28 20 28 28C28 36 20 38 20 46C20 56 26 60 32 60" fill="#66BB6A"/>
  <circle cx="28" cy="46" r="3" fill="#1B5E20" opacity="0.4"/>
  <circle cx="36" cy="42" r="2" fill="#1B5E20" opacity="0.3"/>
  <circle cx="30" cy="52" r="2" fill="#1B5E20" opacity="0.3"/>
  <path d="M26 12Q32 16 38 12" stroke="#81C784" stroke-width="1.5" fill="none"/>
</svg>