<svg xmlns="http://www.w3.org/2000/svg" viewBox="0 0 64 64" fill="none">
  <!-- Glow -->
  <path d="M32 56 L8 30 Q4 18 16 14 Q24 10 32 20 Q40 10 48 14 Q60 18 56 30 Z" fill="#F44336" opacity="0.15"/>
  <!-- Heart shape -->
  <path d="M32 52 L10 30 Q6 20 16 16 Q24 12 32 22 Q40 12 48 16 Q58 20 54 30 Z" fill="#F44336"/>
  <!-- Heart highlight -->
  <path d="M20 20 Q16 22 14 26 Q18 18 24 16 Q28 14 32 22" fill="#EF5350" opacity="0.5"/>
  <!-- Plus sign -->
  <rect x="27" y="28" width="10" height="3" rx="1" fill="white"/>
  <rect x="30.5" y="24.5" width="3" height="10" rx="1" fill="white"/>
  <!-- Heart outline -->
  <path d="M32 52 L10 30 Q6 20 16 16 Q24 12 32 22 Q40 12 48 16 Q58 20 54 30 Z" stroke="#C62828" stroke-width="1.5" fill="none"/>
</svg>