<svg xmlns="http://www.w3.org/2000/svg" viewBox="0 0 64 64" fill="none">
  <!-- Outer frame top -->
  <rect x="14" y="6" width="36" height="4" rx="1" fill="#FFD700"/>
  <!-- Outer frame bottom -->
  <rect x="14" y="54" width="36" height="4" rx="1" fill="#FFD700"/>
  <!-- Glass body top half -->
  <path d="M18 10 L18 24 L32 38 L46 24 L46 10 Z" fill="#FFF8E1" opacity="0.5"/>
  <!-- Glass body bottom half -->
  <path d="M18 54 L18 40 L32 26 L46 40 L46 54 Z" fill="#FFF8E1" opacity="0.5"/>
  <!-- Sand top -->
  <path d="M22 10 L22 20 L32 30 L42 20 L42 10 Z" fill="#FFE082" opacity="0.8"/>
  <!-- Sand bottom pile -->
  <path d="M24 54 L32 44 L40 54 Z" fill="#FFE082"/>
  <!-- Sand stream -->
  <rect x="31" y="28" width="2" height="16" fill="#FFE082" opacity="0.7"/>
  <!-- Gold trim lines -->
  <path d="M18 10 L18 24 L32 38 L46 24 L46 10" stroke="#FFD700" stroke-width="2" fill="none"/>
  <path d="M18 54 L18 40 L32 26 L46 40 L46 54" stroke="#FFD700" stroke-width="2" fill="none"/>
  <!-- Decorative knobs -->
  <circle cx="14" cy="8" r="2" fill="#FFC107"/>
  <circle cx="50" cy="8" r="2" fill="#FFC107"/>
  <circle cx="14" cy="56" r="2" fill="#FFC107"/>
  <circle cx="50" cy="56" r="2" fill="#FFC107"/>
</svg>