<svg xmlns="http://www.w3.org/2000/svg" viewBox="0 0 64 64" fill="none">
  <!-- Shadow -->
  <ellipse cx="34" cy="58" rx="18" ry="3" fill="#000" opacity="0.1"/>
  <!-- Main parchment body -->
  <rect x="14" y="12" width="36" height="40" fill="#D7CCC8"/>
  <!-- Top curl -->
  <ellipse cx="14" cy="14" rx="6" ry="6" fill="#795548"/>
  <ellipse cx="50" cy="14" rx="6" ry="6" fill="#795548"/>
  <rect x="14" y="8" width="36" height="6" fill="#D7CCC8"/>
  <ellipse cx="14" cy="11" rx="5" ry="5" fill="#BCAAA4"/>
  <ellipse cx="50" cy="11" rx="5" ry="5" fill="#BCAAA4"/>
  <!-- Bottom curl -->
  <ellipse cx="14" cy="52" rx="6" ry="6" fill="#795548"/>
  <ellipse cx="50" cy="52" rx="6" ry="6" fill="#795548"/>
  <rect x="14" y="50" width="36" height="6" fill="#D7CCC8"/>
  <ellipse cx="14" cy="53" rx="5" ry="5" fill="#BCAAA4"/>
  <ellipse cx="50" cy="53" rx="5" ry="5" fill="#BCAAA4"/>
  <!-- Text lines -->
  <line x1="20" y1="22" x2="44" y2="22" stroke="#8D6E63" stroke-width="1.5" opacity="0.5"/>
  <line x1="20" y1="28" x2="44" y2="28" stroke="#8D6E63" stroke-width="1.5" opacity="0.5"/>
  <line x1="20" y1="34" x2="38" y2="34" stroke="#8D6E63" stroke-width="1.5" opacity="0.5"/>
  <line x1="20" y1="40" x2="44" y2="40" stroke="#8D6E63" stroke-width="1.5" opacity="0.5"/>
  <line x1="20" y1="46" x2="34" y2="46" stroke="#8D6E63" stroke-width="1.5" opacity="0.5"/>
  <!-- Parchment border -->
  <rect x="14" y="12" width="36" height="40" stroke="#795548" stroke-width="1" fill="none"/>
</svg>