<svg xmlns="http://www.w3.org/2000/svg" viewBox="0 0 64 64" fill="none">
  <rect x="4" y="4" width="24" height="24" rx="3" fill="#78909C" opacity="0.3" stroke="#78909C" stroke-width="2"/>
  <rect x="36" y="4" width="24" height="24" rx="3" fill="#78909C" opacity="0.3" stroke="#78909C" stroke-width="2"/>
  <rect x="4" y="36" width="24" height="24" rx="3" fill="#78909C" opacity="0.3" stroke="#78909C" stroke-width="2"/>
  <rect x="36" y="36" width="24" height="24" rx="3" fill="#78909C" opacity="0.3" stroke="#78909C" stroke-width="2"/>
  <line x1="12" y1="10" x2="20" y2="22" stroke="#B0BEC5" stroke-width="2.5" stroke-linecap="round"/>
  <polygon points="12,10 9,13 14,12" fill="#B0BEC5"/>
  <line x1="44" y1="10" x2="52" y2="22" stroke="#B0BEC5" stroke-width="2.5" stroke-linecap="round"/>
  <polygon points="44,10 41,13 46,12" fill="#B0BEC5"/>
  <line x1="12" y1="42" x2="20" y2="54" stroke="#B0BEC5" stroke-width="2.5" stroke-linecap="round"/>
  <polygon points="12,42 9,45 14,44" fill="#B0BEC5"/>
  <line x1="44" y1="42" x2="52" y2="54" stroke="#90A4AE" stroke-width="2.5" stroke-linecap="round"/>
  <polygon points="44,42 41,45 46,44" fill="#90A4AE"/>
</svg>